<svg id="svg" xmlns="http://www.w3.org/2000/svg" xmlns:xlink="http://www.w3.org/1999/xlink" width="400" height="400" viewBox="0, 0, 400,400"><g id="svgg"><path id="path0" d="M153.014 12.500 C 150.375 19.375,139.492 25.000,128.829 25.000 C 104.347 25.000,25.000 73.715,25.000 88.746 C 25.000 97.124,39.907 100.000,83.333 100.000 C 148.095 100.000,157.835 110.882,124.670 146.185 C 95.723 176.997,92.723 225.000,119.743 225.000 C 141.386 225.000,141.667 225.768,141.667 284.901 C 141.667 333.304,145.266 350.089,160.417 372.344 C 178.355 398.694,200.000 409.260,200.000 391.667 C 200.000 387.083,206.750 383.333,215.000 383.333 C 243.015 383.333,250.000 365.538,250.000 294.167 L 250.000 225.000 276.090 225.000 C 309.446 225.000,306.355 174.777,271.115 144.150 C 232.488 110.580,242.405 100.000,312.500 100.000 C 389.051 100.000,394.033 88.141,333.208 50.715 C 297.793 28.924,283.170 25.000,237.375 25.000 C 194.893 25.000,183.333 22.326,183.333 12.500 C 183.333 -3.743,159.247 -3.743,153.014 12.500 M283.333 62.500 C 302.225 73.300,294.460 74.409,200.000 74.409 C 105.540 74.409,97.775 73.300,116.667 62.500 C 144.577 46.545,255.423 46.545,283.333 62.500 M256.302 181.250 L 268.700 200.000 200.525 200.000 C 130.796 200.000,129.018 198.825,152.641 168.361 C 167.133 149.672,241.539 158.923,256.302 181.250 " stroke="none" fill="#000000" fill-rule="evenodd"></path></g></svg>