<svg id="svg" xmlns="http://www.w3.org/2000/svg" xmlns:xlink="http://www.w3.org/1999/xlink" width="400" height="400" viewBox="0, 0, 400,400"><g id="svgg"><path id="path0" d="M168.333 26.667 C 153.798 41.202,155.608 112.364,170.833 125.000 C 189.298 140.324,186.041 162.975,163.224 177.926 C 152.164 185.173,140.616 202.479,137.562 216.384 C 130.769 247.313,124.120 247.612,70.260 219.413 C -9.469 177.669,-29.316 230.077,35.915 310.104 C 96.673 384.644,158.333 415.233,158.333 370.833 C 158.333 357.870,163.056 350.000,170.833 350.000 C 177.708 350.000,183.333 353.750,183.333 358.333 C 183.333 370.429,222.840 368.579,227.814 356.250 C 230.126 350.521,232.314 354.389,232.675 364.845 C 235.471 445.628,391.367 327.296,391.564 244.242 C 391.694 189.352,387.905 187.582,333.700 217.224 C 275.124 249.257,258.333 249.175,258.333 216.859 C 258.333 199.593,252.000 187.901,237.500 178.400 C 214.032 163.023,210.514 140.481,229.167 125.000 C 262.042 97.716,240.221 16.667,200.000 16.667 C 188.083 16.667,173.833 21.167,168.333 26.667 M190.000 285.000 C 197.778 292.778,202.222 292.778,210.000 285.000 C 215.500 279.500,227.688 275.435,237.083 275.967 C 251.140 276.762,251.583 277.608,239.583 280.744 C 231.563 282.840,225.000 291.505,225.000 300.000 C 225.000 308.495,231.563 317.160,239.583 319.256 C 247.604 321.352,227.917 322.991,195.833 322.898 C 163.750 322.806,145.938 321.105,156.250 319.119 C 178.735 314.788,181.824 286.339,160.417 280.744 C 148.417 277.608,148.860 276.762,162.917 275.967 C 172.313 275.435,184.500 279.500,190.000 285.000 " stroke="none" fill="#000000" fill-rule="evenodd"></path></g></svg>