<?xml version="1.0" encoding="UTF-8" standalone="no"?>
<svg
   id="svg"
   width="268.535"
   height="300"
   viewBox="0 0 268.535 300"
   version="1.1"
   sodipodi:docname="phasar.svg"
   inkscape:version="1.4 (e7c3feb1, 2024-10-09)"
   xmlns:inkscape="http://www.inkscape.org/namespaces/inkscape"
   xmlns:sodipodi="http://sodipodi.sourceforge.net/DTD/sodipodi-0.dtd"
   xmlns="http://www.w3.org/2000/svg"
   xmlns:svg="http://www.w3.org/2000/svg">
  <defs
     id="defs1" />
  <sodipodi:namedview
     id="namedview1"
     pagecolor="#ffffff"
     bordercolor="#000000"
     borderopacity="0.25"
     inkscape:showpageshadow="2"
     inkscape:pageopacity="0.0"
     inkscape:pagecheckerboard="0"
     inkscape:deskcolor="#d1d1d1"
     inkscape:zoom="1"
     inkscape:cx="142.5"
     inkscape:cy="149.5"
     inkscape:window-width="1232"
     inkscape:window-height="770"
     inkscape:window-x="49"
     inkscape:window-y="34"
     inkscape:window-maximized="1"
     inkscape:current-layer="svg" />
  <g
     id="svgg"
     transform="translate(-50,-50)">
    <path
       id="path0"
       d="m 187.5,111.99 c 0,50.019 -1.207,62.991 -6.25,67.177 C 163.641,193.781 176.412,225 200,225 c 23.588,0 36.359,-31.219 18.75,-45.833 -5.043,-4.186 -6.25,-17.158 -6.25,-67.177 V 50 H 200 187.5 v 61.99 m 74.995,2.598 -31.046,31.255 11.354,11.354 11.354,11.354 31.255,-31.046 c 33.604,-33.38 35.282,-36.736 23.635,-47.276 -11.374,-10.293 -12.949,-9.469 -46.552,24.359 m -138.706,9.501 -11.219,11.71 19.961,19.661 19.961,19.661 11.219,-11.71 11.219,-11.71 -19.961,-19.661 -19.961,-19.661 -11.219,11.71 M 50,200 v 12.5 h 36.663 36.663 l 5.429,15.014 c 5.313,14.693 5.09,15.361 -10.475,31.301 l -15.905,16.288 11.261,11.261 11.261,11.261 16.288,-15.905 c 15.94,-15.565 16.608,-15.788 31.301,-10.475 l 15.014,5.429 V 313.337 350 h 12.5 12.5 v -36.663 -36.663 l 15.065,-5.448 15.065,-5.447 26.615,26.378 26.614,26.378 11.338,-11.338 11.338,-11.338 -26.378,-26.614 -26.378,-26.615 5.447,-15.065 c 5.109,-14.128 6.562,-15.065 23.361,-15.065 17.126,0 17.913,-0.549 17.913,-12.5 v -12.5 h -30.755 -30.756 l -4.805,19.082 C 232.396,261.34 161.447,259.7 152.607,204.419 L 149.902,187.5 H 99.951 50 V 200"
       stroke="none"
       fill="#000000"
       fill-rule="evenodd" />
  </g>
</svg>
