<svg id="svg" xmlns="http://www.w3.org/2000/svg" xmlns:xlink="http://www.w3.org/1999/xlink" width="400" height="400" viewBox="0, 0, 400,400"><g id="svgg"><path id="path0" d="M128.333 28.333 C 86.612 70.054,86.960 130.294,129.167 172.500 C 162.086 205.420,166.156 232.005,141.667 254.167 C 125.250 269.024,125.000 268.722,125.000 234.014 C 125.000 204.941,122.449 199.269,110.417 201.586 C 88.275 205.850,88.275 394.150,110.417 398.414 C 122.458 400.733,125.048 394.942,125.277 365.194 C 125.452 342.501,131.344 322.227,141.196 310.417 C 159.282 288.738,166.667 286.763,166.667 303.605 C 166.667 318.388,194.335 327.921,216.667 320.833 C 225.833 317.924,233.333 310.171,233.333 303.605 C 233.333 261.470,265.220 314.770,268.526 362.431 C 270.186 386.355,274.928 396.471,285.417 398.458 C 298.657 400.968,300.000 391.899,300.000 300.000 C 300.000 208.101,298.657 199.032,285.417 201.541 C 275.737 203.374,269.942 213.570,268.181 231.866 C 265.983 254.714,263.487 257.736,253.598 249.528 C 233.494 232.843,240.125 203.208,270.833 172.500 C 313.040 130.294,313.388 70.054,271.667 28.333 C 230.327 -13.007,169.673 -13.007,128.333 28.333 M208.333 241.667 C 208.333 264.583,204.583 283.333,200.000 283.333 C 195.417 283.333,191.667 264.583,191.667 241.667 C 191.667 218.750,195.417 200.000,200.000 200.000 C 204.583 200.000,208.333 218.750,208.333 241.667 " stroke="none" fill="#000000" fill-rule="evenodd"></path></g></svg>