<svg id="svg" xmlns="http://www.w3.org/2000/svg" xmlns:xlink="http://www.w3.org/1999/xlink" width="400" height="400" viewBox="0, 0, 400,400"><g id="svgg"><path id="path0" d="M59.724 101.171 C 45.209 129.314,33.333 156.537,33.333 161.666 C 33.333 166.795,25.833 175.675,16.667 181.399 C -4.938 194.892,-5.606 236.795,15.547 251.611 C 24.098 257.600,33.598 273.902,36.659 287.837 C 51.235 354.200,133.333 406.990,133.333 350.000 C 133.333 339.374,127.778 333.333,118.004 333.333 C 104.636 333.333,83.333 303.230,83.333 284.339 C 83.333 275.491,178.434 283.614,181.944 292.761 C 185.555 302.169,214.445 302.169,218.056 292.761 C 221.566 283.614,316.667 275.491,316.667 284.339 C 316.667 303.230,295.364 333.333,281.996 333.333 C 272.222 333.333,266.667 339.374,266.667 350.000 C 266.667 406.990,348.765 354.200,363.341 287.837 C 366.402 273.902,375.902 257.600,384.453 251.611 C 405.606 236.795,404.938 194.892,383.333 181.399 C 374.167 175.675,366.667 166.795,366.667 161.666 C 366.667 121.087,312.731 50.000,281.943 50.000 C 255.556 50.000,250.000 52.899,250.000 66.667 C 250.000 77.214,255.556 83.333,265.132 83.333 C 277.391 83.333,316.667 135.529,316.667 151.820 C 316.667 158.777,220.847 147.847,218.056 140.572 C 214.445 131.164,185.555 131.164,181.944 140.572 C 179.153 147.847,83.333 158.777,83.333 151.820 C 83.333 135.529,122.609 83.333,134.868 83.333 C 144.444 83.333,150.000 77.214,150.000 66.667 C 150.000 21.963,88.440 45.491,59.724 101.171 M158.333 199.123 C 146.875 202.310,137.500 210.205,137.500 216.667 C 137.500 223.128,146.875 231.023,158.333 234.210 C 186.708 242.103,130.551 244.027,92.708 236.458 C 61.346 230.186,56.282 203.159,85.417 197.548 C 118.625 191.152,182.064 192.522,158.333 199.123 M307.292 196.875 C 369.240 209.265,326.198 242.903,251.042 240.836 C 224.723 240.112,223.516 239.259,241.667 234.210 C 253.125 231.023,262.500 223.128,262.500 216.667 C 262.500 210.205,253.125 202.310,241.667 199.123 C 213.292 191.230,269.449 189.307,307.292 196.875 " stroke="none" fill="#000000" fill-rule="evenodd"></path></g></svg>