<svg id="svg" version="1.1" xmlns="http://www.w3.org/2000/svg" xmlns:xlink="http://www.w3.org/1999/xlink" width="400" height="1066.6666666666667" viewBox="0, 0, 400,1066.6666666666667"><g id="svgg"><path id="path0" d="M114.995 13.511 C 76.633 32.176,37.026 98.789,40.131 139.421 L 42.909 175.758 204.310 179.147 L 365.711 182.536 359.567 136.946 C 345.955 35.937,209.968 -32.696,114.995 13.511 M35.528 260.606 C 26.565 585.489,17.467 569.697,213.605 569.697 L 363.636 569.697 364.583 539.394 C 365.104 522.727,365.530 451.818,365.530 381.818 C 365.530 311.818,365.104 249.091,364.583 242.424 C 364.002 234.989,300.379 230.303,200.000 230.303 L 36.364 230.303 35.528 260.606 M180.631 617.590 C 29.814 624.727,37.151 620.460,54.553 690.909 C 71.856 760.958,73.656 787.879,61.034 787.879 C 46.384 787.879,24.004 838.379,18.060 884.848 C 15.929 901.515,11.267 932.761,7.701 954.285 C -3.299 1020.683,41.905 1041.436,91.928 992.952 L 130.259 955.800 138.801 990.021 C 157.176 1063.634,232.155 1095.906,253.513 1039.394 C 259.182 1024.394,261.412 1008.030,258.468 1003.030 C 255.523 998.030,258.720 993.939,265.571 993.939 C 272.422 993.939,274.430 984.394,270.033 972.727 C 264.935 959.198,278.397 965.784,307.199 990.909 C 364.507 1040.901,414.777 1027.444,394.482 967.545 C 391.495 958.728,385.624 929.697,381.437 903.030 C 377.249 876.364,372.613 847.989,371.134 839.975 C 369.656 831.962,359.519 815.541,348.608 803.485 C 326.784 779.369,327.702 736.277,351.253 679.422 C 366.020 643.770,352.466 600.920,328.819 608.499 C 324.635 609.840,257.950 613.930,180.631 617.590 " stroke="none" fill="#000000" fill-rule="evenodd"></path></g></svg>